<svg width="127" height="39" viewBox="0 0 127 39" fill="none" xmlns="http://www.w3.org/2000/svg">
<path d="M126.059 34.4175C126.059 36.465 124.46 38.1225 122.484 38.1225H4.42149C2.44594 38.1225 0.84668 36.465 0.84668 34.4175V4.58247C0.84668 2.53497 2.44594 0.877472 4.42149 0.877472H122.484C124.46 0.877472 126.059 2.53497 126.059 4.58247V34.4175V34.4175Z" fill="#555555"/>
<path d="M28.3163 19.305C28.3163 16.185 30.7622 14.625 30.9504 14.5275C29.5393 12.3825 27.2815 12.09 26.5289 12.09C24.6474 11.895 22.86 13.26 21.9192 13.26C20.9785 13.26 19.4733 12.09 17.9681 12.1875C15.9926 12.1875 14.1111 13.455 13.0763 15.3075C10.9126 19.11 12.5118 24.765 14.5815 27.885C15.6163 29.445 16.8392 31.1025 18.3444 31.005C19.8496 30.9075 20.4141 30.03 22.2955 30.03C24.083 30.03 24.6474 31.005 26.2467 31.005C27.8459 31.005 28.8807 29.445 29.9155 27.9825C31.1385 26.2275 31.6089 24.57 31.6089 24.4725C31.5148 24.2775 28.4104 23.01 28.3163 19.305V19.305ZM25.3059 10.0425C26.1526 8.96999 26.717 7.50749 26.5289 6.04499C25.3059 6.14249 23.8948 6.92249 22.9541 7.89749C22.2015 8.77499 21.543 10.335 21.7311 11.7C23.1422 11.895 24.4592 11.115 25.3059 10.0425V10.0425ZM50.4237 30.7125H48.26L47.1311 26.91H43.0859L41.957 30.7125H39.8874L43.9326 17.745H46.3785L50.4237 30.7125V30.7125ZM46.8489 25.35L45.8141 21.9375C45.72 21.5475 45.5318 20.7675 45.1555 19.5C45.0615 20.085 44.8733 20.865 44.5911 21.9375L43.4622 25.35H46.8489V25.35ZM60.8659 25.935C60.8659 27.495 60.4896 28.7625 59.643 29.7375C58.8904 30.5175 57.9496 31.005 56.9148 31.005C55.6918 31.005 54.8452 30.5175 54.3748 29.64V34.6125H52.3993V24.4725C52.3993 23.4975 52.3993 22.425 52.3052 21.3525H54.0926L54.1867 22.815C54.8452 21.7425 55.88 21.1575 57.197 21.1575C58.2318 21.1575 59.1726 21.5475 59.8311 22.425C60.4896 23.3025 60.8659 24.4725 60.8659 25.935V25.935ZM58.7963 26.0325C58.7963 25.155 58.6081 24.375 58.2318 23.79C57.7615 23.205 57.197 22.9125 56.4444 22.9125C55.9741 22.9125 55.5037 23.1075 55.1274 23.4C54.7511 23.6925 54.4689 24.18 54.3748 24.765C54.2807 25.0575 54.2807 25.2525 54.2807 25.4475V27.0075C54.2807 27.69 54.4689 28.275 54.8452 28.7625C55.2215 29.25 55.7859 29.445 56.4444 29.445C57.197 29.445 57.7615 29.1525 58.2318 28.5675C58.6081 27.7875 58.7963 27.0075 58.7963 26.0325V26.0325ZM71.2141 25.935C71.2141 27.495 70.8378 28.7625 69.9911 29.7375C69.2385 30.5175 68.2978 31.005 67.263 31.005C66.04 31.005 65.1933 30.5175 64.723 29.64V34.6125H62.7474V24.4725C62.7474 23.4975 62.7474 22.425 62.6533 21.3525H64.4407L64.5348 22.815C65.1933 21.7425 66.2281 21.1575 67.5452 21.1575C68.58 21.1575 69.5207 21.5475 70.1793 22.425C70.8378 23.3025 71.2141 24.4725 71.2141 25.935V25.935ZM69.1444 26.0325C69.1444 25.155 68.9563 24.375 68.58 23.79C68.1096 23.205 67.5452 22.9125 66.7926 22.9125C66.3222 22.9125 65.8518 23.1075 65.4755 23.4C65.0993 23.6925 64.817 24.18 64.723 24.765C64.6289 25.0575 64.6289 25.2525 64.6289 25.4475V27.0075C64.6289 27.69 64.817 28.275 65.1933 28.7625C65.5696 29.25 66.1341 29.445 66.7926 29.445C67.5452 29.445 68.1096 29.1525 68.58 28.5675C68.9563 27.7875 69.1444 27.0075 69.1444 26.0325ZM82.7852 27.105C82.7852 28.1775 82.4089 29.1525 81.6563 29.835C80.8096 30.615 79.6807 31.005 78.2696 31.005C76.9526 31.005 75.8237 30.7125 75.0711 30.225L75.5415 28.47C76.3881 29.055 77.423 29.25 78.4578 29.25C79.2104 29.25 79.7748 29.055 80.2452 28.7625C80.6215 28.3725 80.9037 27.9825 80.9037 27.3C80.9037 26.8125 80.7156 26.325 80.3393 25.935C79.963 25.545 79.3985 25.2525 78.6459 24.96C76.4822 24.0825 75.3533 22.9125 75.3533 21.255C75.3533 20.1825 75.7296 19.305 76.4822 18.6225C77.2348 17.94 78.2696 17.6475 79.5867 17.6475C80.7156 17.6475 81.6563 17.8425 82.4089 18.2325L81.8444 19.89C81.0918 19.5 80.3393 19.305 79.4926 19.305C78.74 19.305 78.2696 19.5 77.7993 19.89C77.423 20.1825 77.3289 20.5725 77.3289 21.06C77.3289 21.5475 77.517 22.035 77.8933 22.3275C78.2696 22.62 78.8341 23.01 79.6807 23.3025C80.7156 23.79 81.5622 24.2775 82.0326 24.8625C82.597 25.4475 82.7852 26.2275 82.7852 27.105V27.105ZM89.4644 22.9125H87.3007V27.495C87.3007 28.665 87.677 29.25 88.4296 29.25C88.8059 29.25 89.0881 29.25 89.2763 29.1525L89.3704 30.7125C88.9941 30.9075 88.4296 30.9075 87.7711 30.9075C87.0185 30.9075 86.36 30.615 85.8896 30.1275C85.4193 29.64 85.2311 28.7625 85.2311 27.5925V22.9125H83.9141V21.3525H85.2311V19.5975L87.2067 19.0125V21.3525H89.3704V22.9125H89.4644ZM99.4363 25.935C99.4363 27.3975 99.06 28.5675 98.2133 29.445C97.3667 30.42 96.2378 30.9075 94.9207 30.9075C93.6037 30.9075 92.5689 30.42 91.7222 29.5425C90.9696 28.665 90.4993 27.495 90.4993 26.13C90.4993 24.6675 90.8756 23.4975 91.7222 22.5225C92.5689 21.645 93.6037 21.1575 95.0148 21.1575C96.3319 21.1575 97.3667 21.645 98.2133 22.5225C99.06 23.4 99.4363 24.57 99.4363 25.935V25.935ZM97.3667 26.0325C97.3667 25.155 97.1785 24.4725 96.8022 23.79C96.4259 23.01 95.7674 22.7175 95.0148 22.7175C94.1681 22.7175 93.6037 23.1075 93.1333 23.79C92.757 24.375 92.5689 25.155 92.5689 26.0325C92.5689 26.91 92.757 27.5925 93.1333 28.275C93.6037 29.055 94.1681 29.3475 94.9207 29.3475C95.6733 29.3475 96.3319 28.9575 96.7082 28.1775C97.1785 27.5925 97.3667 26.91 97.3667 26.0325V26.0325ZM105.927 23.205C105.739 23.205 105.551 23.1075 105.269 23.1075C104.516 23.1075 104.046 23.4 103.67 23.8875C103.293 24.375 103.199 24.96 103.199 25.74V30.615H101.224V24.18C101.224 23.1075 101.224 22.1325 101.13 21.255H102.917L103.011 23.01H103.105C103.293 22.425 103.67 21.9375 104.14 21.5475C104.61 21.255 105.081 21.06 105.551 21.06H106.021V23.205H105.927ZM114.959 25.6425C114.959 26.0325 114.959 26.325 114.864 26.6175H108.844C108.844 27.495 109.126 28.275 109.69 28.7625C110.161 29.1525 110.819 29.445 111.666 29.445C112.513 29.445 113.359 29.25 114.112 28.9575L114.394 30.42C113.547 30.81 112.513 31.005 111.384 31.005C109.973 31.005 108.844 30.615 108.091 29.7375C107.339 28.86 106.868 27.7875 106.868 26.325C106.868 24.96 107.244 23.6925 107.997 22.815C108.75 21.84 109.784 21.3525 111.196 21.3525C112.513 21.3525 113.453 21.84 114.112 22.815C114.676 23.4 114.959 24.4725 114.959 25.6425V25.6425ZM112.983 25.0575C112.983 24.4725 112.889 23.8875 112.607 23.4975C112.23 22.9125 111.76 22.62 111.007 22.62C110.349 22.62 109.784 22.9125 109.408 23.4975C109.032 23.985 108.844 24.4725 108.844 25.155H112.983V25.0575ZM45.3437 6.92249L45.1555 7.70249C44.7793 7.50749 44.403 7.40999 44.0267 7.40999C43.3681 7.40999 42.8037 7.60499 42.4274 7.99499C42.0511 8.38499 41.7689 9.06749 41.7689 9.84749C41.7689 10.6275 41.957 11.2125 42.3333 11.6025C42.7096 11.9925 43.2741 12.285 43.9326 12.285C44.403 12.285 44.7793 12.1875 45.1555 12.09L45.3437 12.87C44.9674 13.065 44.497 13.1625 43.7444 13.1625C42.8037 13.1625 42.0511 12.87 41.5807 12.285C41.0163 11.7 40.7341 10.92 40.7341 9.94499C40.7341 8.96999 41.0163 8.09249 41.6748 7.50749C42.2393 6.92249 42.9918 6.62999 43.9326 6.62999C44.5911 6.62999 45.0615 6.72749 45.3437 6.92249V6.92249ZM50.8 10.725C50.8 11.4075 50.6118 11.9925 50.2355 12.48C49.8593 12.9675 49.2948 13.1625 48.6363 13.1625C47.9778 13.1625 47.5074 12.9675 47.037 12.48C46.6607 11.9925 46.4726 11.505 46.4726 10.8225C46.4726 10.14 46.6607 9.55499 47.037 9.06749C47.4133 8.57999 47.9778 8.38499 48.6363 8.38499C49.2948 8.38499 49.7652 8.57999 50.2355 9.06749C50.6118 9.55499 50.8 10.0425 50.8 10.725ZM49.7652 10.8225C49.7652 10.4325 49.6711 10.0425 49.483 9.74999C49.2948 9.35999 49.0126 9.16499 48.6363 9.16499C48.26 9.16499 47.9778 9.35999 47.6955 9.74999C47.5074 10.0425 47.4133 10.4325 47.4133 10.8225C47.4133 11.2125 47.5074 11.6025 47.6955 11.895C47.8837 12.285 48.1659 12.48 48.6363 12.48C49.0126 12.48 49.2948 12.285 49.483 11.895C49.6711 11.6025 49.7652 11.2125 49.7652 10.8225ZM56.1622 13.065H55.2215V10.4325C55.2215 9.65249 54.9393 9.26249 54.2807 9.26249C53.9985 9.26249 53.7163 9.35999 53.5281 9.55499C53.34 9.74999 53.2459 10.0425 53.2459 10.335V13.065H52.3052V8.48249H53.1518V9.16499C53.2459 8.96999 53.4341 8.77499 53.6222 8.57999C53.9044 8.38499 54.1867 8.28749 54.563 8.28749C54.9393 8.28749 55.3155 8.38499 55.5978 8.67749C55.9741 8.96999 56.0681 9.55499 56.0681 10.2375V13.065H56.1622ZM60.5837 11.7975C60.5837 12.1875 60.3956 12.5775 60.1133 12.87C59.8311 13.1625 59.3607 13.26 58.8904 13.26C58.42 13.26 57.9496 13.1625 57.5733 12.9675L57.7615 12.1875C58.1378 12.3825 58.42 12.48 58.8904 12.48C59.3607 12.48 59.643 12.285 59.643 11.895C59.643 11.7 59.5489 11.6025 59.4548 11.505C59.3607 11.4075 59.1726 11.31 58.8904 11.2125C58.1378 10.92 57.6674 10.4325 57.6674 9.84749C57.6674 9.45749 57.8555 9.16499 58.1378 8.87249C58.42 8.57999 58.7963 8.48249 59.2667 8.48249C59.737 8.48249 60.1133 8.57999 60.3955 8.77499L60.2074 9.45749C59.9252 9.26249 59.643 9.16499 59.2667 9.16499C59.0785 9.16499 58.8904 9.26249 58.7963 9.35999C58.7022 9.45749 58.6081 9.55499 58.6081 9.74999C58.6081 9.94499 58.7022 10.0425 58.7963 10.14C58.8904 10.2375 59.0785 10.335 59.3607 10.4325C60.2074 10.725 60.5837 11.115 60.5837 11.7975V11.7975ZM63.0296 13.065H62.0889V8.48249H63.0296V13.065ZM63.8763 6.53249L62.7474 7.89749H62.0889L62.8415 6.53249H63.8763V6.53249ZM68.6741 8.48249V12.3825C68.6741 13.3575 68.4859 14.04 68.0156 14.43C67.6393 14.82 67.0748 15.015 66.4163 15.015C65.7578 15.015 65.2874 14.9175 64.9111 14.625L65.0993 13.845C65.4755 14.04 65.8518 14.235 66.3222 14.235C67.1689 14.235 67.6393 13.7475 67.6393 12.7725V12.285C67.357 12.7725 66.8867 12.9675 66.3222 12.9675C65.7578 12.9675 65.3815 12.7725 65.0052 12.3825C64.6289 11.9925 64.4407 11.4075 64.4407 10.8225C64.4407 10.0425 64.6289 9.45749 65.0052 9.06749C65.3815 8.67749 65.8518 8.48249 66.3222 8.48249C66.8867 8.48249 67.357 8.67749 67.6393 9.16499V8.57999H68.6741V8.48249ZM67.6393 11.115V10.335C67.6393 10.0425 67.5452 9.74999 67.357 9.55499C67.1689 9.35999 66.8867 9.26249 66.6044 9.26249C66.2281 9.26249 65.9459 9.35999 65.7578 9.65249C65.5696 9.94499 65.4755 10.335 65.4755 10.8225C65.4755 11.31 65.5696 11.6025 65.7578 11.895C65.9459 12.1875 66.2281 12.3825 66.6044 12.3825C66.7926 12.3825 66.9807 12.285 67.1689 12.1875C67.357 12.09 67.4511 11.895 67.5452 11.6025C67.6393 11.4075 67.6393 11.31 67.6393 11.115V11.115ZM74.2244 13.065H73.3778L73.2837 12.3825C73.0015 12.87 72.5311 13.1625 71.8726 13.1625C71.4022 13.1625 71.12 13.065 70.8378 12.7725C70.5556 12.3825 70.3674 11.895 70.3674 11.2125V8.48249H71.3081V11.0175C71.3081 11.895 71.5904 12.3825 72.1548 12.3825C72.6252 12.3825 72.9074 12.1875 73.0955 11.7C73.0955 11.6025 73.1896 11.505 73.1896 11.31V8.48249H74.1304V11.7975C74.1304 12.1875 74.2244 12.675 74.2244 13.065V13.065ZM79.5867 10.6275V11.115H76.6704C76.6704 11.6025 76.8585 11.895 77.1407 12.1875C77.423 12.3825 77.7052 12.48 78.0815 12.48C78.5518 12.48 78.9281 12.3825 79.3044 12.285L79.4926 12.9675C79.1163 13.1625 78.5519 13.26 77.9874 13.26C77.3289 13.26 76.7644 13.065 76.3881 12.675C76.0118 12.285 75.8237 11.7 75.8237 11.0175C75.8237 10.335 76.0118 9.74999 76.3881 9.26249C76.7644 8.77499 77.3289 8.48249 77.8933 8.48249C78.5519 8.48249 79.0222 8.77499 79.3044 9.26249C79.4926 9.55499 79.5867 10.0425 79.5867 10.6275V10.6275ZM78.6459 10.335C78.6459 10.0425 78.5519 9.74999 78.4578 9.55499C78.2696 9.26249 77.9874 9.16499 77.7052 9.16499C77.423 9.16499 77.1407 9.26249 76.9526 9.55499C76.7644 9.74999 76.6704 10.0425 76.6704 10.335H78.6459ZM82.0326 13.065H81.0918V6.43499H82.0326V13.065ZM87.7711 10.725C87.7711 11.4075 87.583 11.9925 87.2067 12.48C86.8304 12.9675 86.2659 13.1625 85.6074 13.1625C84.9489 13.1625 84.4785 12.9675 84.0081 12.48C83.6319 11.9925 83.4437 11.505 83.4437 10.8225C83.4437 10.14 83.6319 9.55499 84.0081 9.06749C84.3844 8.57999 84.9489 8.38499 85.6074 8.38499C86.2659 8.38499 86.7363 8.57999 87.2067 9.06749C87.583 9.55499 87.7711 10.0425 87.7711 10.725ZM86.7363 10.8225C86.7363 10.4325 86.6422 10.0425 86.4541 9.74999C86.2659 9.35999 85.9837 9.16499 85.6074 9.16499C85.2311 9.16499 84.9489 9.35999 84.6667 9.74999C84.4785 10.0425 84.3844 10.4325 84.3844 10.8225C84.3844 11.2125 84.4785 11.6025 84.6667 11.895C84.8548 12.285 85.137 12.48 85.6074 12.48C85.9837 12.48 86.2659 12.285 86.4541 11.895C86.6422 11.6025 86.7363 11.2125 86.7363 10.8225ZM95.5793 10.6275V11.115H92.663C92.663 11.6025 92.8511 11.895 93.1333 12.1875C93.4156 12.3825 93.6978 12.48 94.0741 12.48C94.5444 12.48 94.9207 12.3825 95.297 12.285L95.4852 12.9675C95.1089 13.1625 94.5444 13.26 93.98 13.26C93.3215 13.26 92.757 13.065 92.3807 12.675C92.0044 12.285 91.8163 11.7 91.8163 11.0175C91.8163 10.335 92.0044 9.74999 92.3807 9.26249C92.757 8.77499 93.3215 8.48249 93.8859 8.48249C94.5444 8.48249 95.0148 8.77499 95.297 9.26249C95.3911 9.55499 95.5793 10.0425 95.5793 10.6275V10.6275ZM94.6385 10.335C94.6385 10.0425 94.5444 9.74999 94.4504 9.55499C94.2622 9.26249 93.98 9.16499 93.6978 9.16499C93.4156 9.16499 93.1333 9.26249 92.9452 9.55499C92.757 9.74999 92.663 10.0425 92.663 10.335H94.6385ZM100.847 13.065H99.9067V10.4325C99.9067 9.65249 99.6244 9.26249 98.9659 9.26249C98.6837 9.26249 98.4015 9.35999 98.2133 9.55499C98.0252 9.74999 97.9311 10.0425 97.9311 10.335V13.065H96.9904V8.48249H97.837V9.16499C97.9311 8.96999 98.1193 8.77499 98.3074 8.57999C98.5896 8.38499 98.8719 8.28749 99.2481 8.28749C99.6244 8.28749 100.001 8.38499 100.283 8.67749C100.659 8.96999 100.753 9.55499 100.753 10.2375V13.065H100.847ZM108.938 10.6275V11.115H106.021C106.021 11.6025 106.21 11.895 106.492 12.1875C106.774 12.3825 107.056 12.48 107.433 12.48C107.903 12.48 108.279 12.3825 108.656 12.285L108.844 12.9675C108.467 13.1625 107.903 13.26 107.339 13.26C106.68 13.26 106.116 13.065 105.739 12.675C105.363 12.285 105.175 11.7 105.175 11.0175C105.175 10.335 105.363 9.74999 105.739 9.26249C106.116 8.77499 106.68 8.48249 107.244 8.48249C107.903 8.48249 108.373 8.77499 108.656 9.26249C108.75 9.55499 108.938 10.0425 108.938 10.6275V10.6275ZM107.997 10.335C107.997 10.0425 107.903 9.74999 107.809 9.55499C107.621 9.26249 107.339 9.16499 107.056 9.16499C106.774 9.16499 106.492 9.26249 106.304 9.55499C106.116 9.74999 106.021 10.0425 106.021 10.335H107.997ZM111.29 13.065H110.349V6.43499H111.29V13.065Z" fill="white"/>
</svg>
