<svg width="56" height="56" viewBox="0 0 56 56" fill="none" xmlns="http://www.w3.org/2000/svg">
<circle cx="28" cy="28" r="27.5" fill="white"/>
<path d="M28.0007 20.5413C26.7233 20.5413 25.4747 20.9201 24.4126 21.6298C23.3505 22.3394 22.5227 23.3481 22.0339 24.5282C21.5451 25.7083 21.4172 27.0068 21.6664 28.2596C21.9156 29.5124 22.5307 30.6632 23.4339 31.5664C24.3371 32.4696 25.4879 33.0847 26.7407 33.3339C27.9935 33.5831 29.292 33.4552 30.4721 32.9664C31.6523 32.4776 32.6609 31.6498 33.3706 30.5877C34.0802 29.5257 34.459 28.277 34.459 26.9997C34.459 25.2868 33.7786 23.6441 32.5674 22.4329C31.3562 21.2218 29.7135 20.5413 28.0007 20.5413ZM28.0007 30.8747C27.2342 30.8747 26.4851 30.6474 25.8478 30.2216C25.2106 29.7958 24.7139 29.1906 24.4206 28.4826C24.1273 27.7745 24.0506 26.9954 24.2001 26.2437C24.3496 25.492 24.7187 24.8016 25.2606 24.2596C25.8025 23.7177 26.493 23.3486 27.2447 23.1991C27.9964 23.0496 28.7755 23.1264 29.4835 23.4196C30.1916 23.7129 30.7968 24.2096 31.2226 24.8468C31.6484 25.4841 31.8757 26.2333 31.8757 26.9997C31.8757 28.0274 31.4674 29.013 30.7407 29.7397C30.014 30.4664 29.0284 30.8747 28.0007 30.8747ZM34.459 19.2497C34.2035 19.2497 33.9538 19.3254 33.7414 19.4674C33.529 19.6093 33.3634 19.811 33.2656 20.047C33.1679 20.2831 33.1423 20.5428 33.1921 20.7933C33.242 21.0439 33.365 21.274 33.5456 21.4547C33.7263 21.6353 33.9564 21.7583 34.207 21.8082C34.4576 21.858 34.7173 21.8324 34.9533 21.7347C35.1893 21.6369 35.391 21.4714 35.533 21.259C35.6749 21.0465 35.7507 20.7968 35.7507 20.5413C35.7507 20.1988 35.6146 19.8702 35.3723 19.628C35.1301 19.3858 34.8016 19.2497 34.459 19.2497ZM40.8398 22.143C40.8184 21.0392 40.6087 19.9471 40.2198 18.9138C39.8592 17.9736 39.3048 17.1197 38.5927 16.4076C37.8806 15.6955 37.0267 15.1412 36.0865 14.7805C35.0532 14.3916 33.9611 14.1819 32.8573 14.1605C31.6044 14.083 31.1911 14.083 28.0007 14.083C24.8102 14.083 24.3969 14.083 23.144 14.1605C22.0402 14.1819 20.9481 14.3916 19.9148 14.7805C18.9746 15.1412 18.1207 15.6955 17.4086 16.4076C16.6965 17.1197 16.1421 17.9736 15.7815 18.9138C15.3926 19.9471 15.1829 21.0392 15.1615 22.143C15.084 23.4088 15.084 23.8222 15.084 26.9997C15.084 30.1772 15.084 30.5905 15.1615 31.8563C15.1829 32.9602 15.3926 34.0522 15.7815 35.0855C16.1421 36.0258 16.6965 36.8796 17.4086 37.5917C18.1207 38.3038 18.9746 38.8582 19.9148 39.2188C20.9481 39.6078 22.0402 39.8174 23.144 39.8388C24.4357 39.8388 24.8102 39.9163 28.0007 39.9163C31.1911 39.9163 31.6044 39.9163 32.8573 39.8388C33.9611 39.8174 35.0532 39.6078 36.0865 39.2188C37.0267 38.8582 37.8806 38.3038 38.5927 37.5917C39.3048 36.8796 39.8592 36.0258 40.2198 35.0855C40.6087 34.0522 40.8184 32.9602 40.8398 31.8563C40.8398 30.5647 40.9173 30.1772 40.9173 26.9997C40.9173 23.8222 40.9173 23.4088 40.8398 22.143ZM38.2565 31.7401C38.2338 32.5598 38.0812 33.3707 37.8044 34.1426C37.5755 34.7527 37.2137 35.3042 36.7452 35.7572C36.295 36.2258 35.7424 36.5839 35.1307 36.8034C34.357 37.0916 33.5406 37.2488 32.7152 37.2684C31.5011 37.2684 31.1265 37.333 27.9877 37.333C24.849 37.333 24.4873 37.333 23.2732 37.333C22.4491 37.3117 21.6337 37.1591 20.8577 36.8809C20.2476 36.652 19.6961 36.2902 19.2432 35.8218C18.7745 35.3715 18.4164 34.8189 18.1969 34.2072C17.9099 33.4376 17.7528 32.6257 17.7319 31.8047C17.7319 30.513 17.7319 30.1901 17.7319 27.0643C17.7319 23.9384 17.7319 23.5638 17.7319 22.3238C17.7542 21.4987 17.9112 20.6828 18.1969 19.9084C18.4198 19.3022 18.7775 18.7545 19.2432 18.3068C19.6934 17.8381 20.246 17.48 20.8577 17.2605C21.6314 16.9723 22.4478 16.8152 23.2732 16.7955C24.4873 16.6663 24.8619 16.6663 28.0007 16.6663C31.1394 16.6663 31.514 16.6663 32.7281 16.6663C33.5576 16.6874 34.3779 16.8445 35.1565 17.1313C35.7628 17.3542 36.3104 17.712 36.7582 18.1776C37.2268 18.6278 37.5849 19.1805 37.8044 19.7922C38.1206 20.5782 38.2997 21.4127 38.334 22.2593C38.334 23.5509 38.3986 23.8738 38.3986 26.9997C38.3986 30.1255 38.334 30.5001 38.334 31.7401H38.2565Z" fill="#E72B6F"/>
</svg>
