<svg width="56" height="56" viewBox="0 0 56 56" fill="none" xmlns="http://www.w3.org/2000/svg">
<circle cx="28" cy="28" r="27.5" fill="white"/>
<path d="M42.2093 24.0418C42.2732 22.1929 41.8689 20.3579 41.0339 18.7072C40.4674 18.0298 39.6812 17.5727 38.8122 17.4155C35.2182 17.0894 31.6093 16.9557 28.001 17.0151C24.4058 16.953 20.8099 17.0824 17.2285 17.4026C16.5204 17.5314 15.8651 17.8635 15.3426 18.3584C14.1801 19.4305 14.051 21.2647 13.9218 22.8147C13.7344 25.6015 13.7344 28.3978 13.9218 31.1847C13.9592 32.0571 14.0891 32.923 14.3093 33.768C14.465 34.4204 14.7801 35.024 15.2264 35.5247C15.7524 36.0458 16.423 36.3968 17.151 36.5322C19.9357 36.8759 22.7416 37.0184 25.5468 36.9584C30.0676 37.023 34.0331 36.9584 38.7218 36.5968C39.4677 36.4697 40.1571 36.1183 40.6981 35.5893C41.0597 35.2275 41.3298 34.7847 41.486 34.2976C41.9479 32.8801 42.1748 31.3966 42.1576 29.9059C42.2093 29.1826 42.2093 24.8168 42.2093 24.0418ZM25.0818 30.6809V22.6855L32.7285 26.7026C30.5843 27.8909 27.7556 29.2343 25.0818 30.6809Z" fill="#E72B6F"/>
</svg>
