<svg width="150" height="50" viewBox="0 0 150 50" fill="none" xmlns="http://www.w3.org/2000/svg">
<g clip-path="url(#clip0_1150_594)">
<path d="M138.055 0.0001625H11.9518C11.4921 0.0001625 11.038 0.0001625 10.5796 0.0026625C10.1958 0.0051625 9.81509 0.012425 9.42764 0.0185375C8.58593 0.0284148 7.74619 0.102258 6.91573 0.239425C6.08644 0.379578 5.28313 0.643807 4.53296 1.02318C3.78372 1.40575 3.09911 1.90287 2.50397 2.4965C1.90571 3.08846 1.40702 3.77268 1.02706 4.52286C0.646059 5.27155 0.38187 6.07384 0.243619 6.90201C0.104055 7.72914 0.028954 8.56581 0.0189907 9.40451C0.0073581 9.78776 0.00612966 10.1723 0 10.5556V39.4484C0.00612966 39.8365 0.0073581 40.2125 0.0189907 40.6008C0.0289571 41.4394 0.104058 42.2761 0.243619 43.1032C0.381488 43.9318 0.645693 44.7346 1.02706 45.4835C1.40685 46.2313 1.90561 46.9127 2.50397 47.5014C3.09685 48.0977 3.7819 48.5951 4.53296 48.9748C5.28312 49.3552 6.08635 49.621 6.91573 49.7633C7.74633 49.8994 8.58598 49.9732 9.42764 49.9843C9.81509 49.9928 10.1958 49.9977 10.5796 49.9977C11.038 50.0002 11.4922 50.0002 11.9518 50.0002H138.055C138.505 50.0002 138.963 50.0002 139.414 49.9977C139.796 49.9977 140.187 49.9928 140.569 49.9843C141.409 49.9738 142.247 49.8999 143.076 49.7633C143.908 49.62 144.715 49.3542 145.468 48.9748C146.219 48.5949 146.903 48.0975 147.495 47.5014C148.092 46.9104 148.592 46.2295 148.977 45.4835C149.355 44.734 149.617 43.9313 149.753 43.1032C149.892 42.276 149.97 41.4395 149.985 40.6008C149.99 40.2125 149.99 39.8365 149.99 39.4484C150 38.9943 150 38.5427 150 38.0812V11.9203C150 11.4626 150 11.0085 149.99 10.5556C149.99 10.1723 149.99 9.78776 149.985 9.40446C149.97 8.56569 149.892 7.72921 149.753 6.90196C149.616 6.07426 149.355 5.27204 148.977 4.52281C148.203 3.01916 146.976 1.79519 145.468 1.02306C144.715 0.644622 143.908 0.380463 143.076 0.239312C142.248 0.101541 141.409 0.0276722 140.569 0.0183625C140.187 0.0122625 139.796 0.0049375 139.414 0.0025C138.963 0 138.505 0.0001625 138.055 0.0001625Z" fill="#A6A6A6"/>
<path d="M10.5851 48.9062C10.2032 48.9062 9.83048 48.9014 9.45156 48.8929C8.66659 48.8827 7.88345 48.8145 7.10858 48.689C6.38604 48.5649 5.6861 48.3341 5.03184 48.0041C4.38357 47.6769 3.79231 47.2478 3.28068 46.7334C2.76166 46.225 2.32954 45.6353 2.00147 44.9878C1.66977 44.336 1.44022 43.6374 1.32081 42.9163C1.19186 42.1414 1.12208 41.3579 1.1121 40.5725C1.10415 40.3089 1.09375 39.4311 1.09375 39.4311V10.5554C1.09375 10.5554 1.10483 9.69116 1.11216 9.43725C1.12172 8.6531 1.19109 7.87082 1.31966 7.09716C1.43929 6.37406 1.66902 5.67344 2.00089 5.01954C2.32776 4.37243 2.75748 3.78233 3.27338 3.2721C3.7887 2.75703 4.38186 2.32576 5.03122 1.99401C5.68398 1.66512 6.3826 1.43592 7.10367 1.31409C7.8811 1.1873 8.66695 1.11875 9.45464 1.10901L10.5857 1.09375H139.407L140.552 1.10963C141.332 1.11887 142.111 1.18681 142.881 1.31286C143.609 1.43622 144.315 1.66702 144.976 1.99768C146.277 2.66623 147.335 3.72395 148.003 5.02259C148.329 5.67197 148.556 6.36688 148.674 7.08374C148.804 7.86374 148.877 8.65217 148.892 9.44275C148.895 9.79675 148.895 10.177 148.895 10.5554C148.905 11.0242 148.905 11.4703 148.905 11.9202V38.081C148.905 38.5351 148.905 38.9783 148.895 39.425C148.895 39.8315 148.895 40.2039 148.89 40.5871C148.876 41.3636 148.804 42.138 148.676 42.904C148.559 43.6303 148.331 44.3344 147.999 44.9915C147.669 45.632 147.239 46.2166 146.726 46.7236C146.214 47.2409 145.622 47.6724 144.972 48.0018C144.314 48.3342 143.609 48.5659 142.881 48.689C142.106 48.8152 141.323 48.8834 140.538 48.8929C140.171 48.9014 139.786 48.9062 139.413 48.9062L138.054 48.9087L10.5851 48.9062Z" fill="black"/>
<path d="M31.0486 25.3764C31.062 24.3331 31.34 23.3101 31.8564 22.4026C32.3729 21.4952 33.1112 20.7328 34.0025 20.1863C33.4363 19.3799 32.6893 18.7162 31.8208 18.248C30.9523 17.7798 29.9863 17.52 28.9996 17.4892C26.8946 17.2689 24.854 18.7453 23.7813 18.7453C22.6879 18.7453 21.0364 17.5111 19.2581 17.5476C18.1077 17.5846 16.9867 17.9182 16.0041 18.5158C15.0215 19.1133 14.2109 19.9545 13.6512 20.9574C11.2269 25.1429 13.0352 31.2942 15.3575 34.6775C16.5194 36.3342 17.8773 38.1848 19.6541 38.1191C21.3927 38.0472 22.0421 37.0135 24.1409 37.0135C26.2201 37.0135 26.8294 38.1191 28.6422 38.0774C30.5079 38.0472 31.6834 36.4134 32.8045 34.741C33.6393 33.5605 34.2817 32.2559 34.7079 30.8754C33.6239 30.4182 32.699 29.653 32.0482 28.6751C31.3975 27.6972 31.0498 26.55 31.0486 25.3764Z" fill="white"/>
<path d="M27.6243 15.2637C28.6415 14.0459 29.1427 12.4807 29.0213 10.9004C27.4672 11.0632 26.0316 11.8039 25.0006 12.9749C24.4965 13.547 24.1104 14.2125 23.8644 14.9335C23.6185 15.6545 23.5174 16.4167 23.567 17.1766C24.3443 17.1846 25.1133 17.0166 25.8161 16.6852C26.5189 16.3539 27.1372 15.8678 27.6243 15.2637Z" fill="white"/>
<path d="M53.0276 33.9246H47.0943L45.6694 38.1202H43.1562L48.7762 22.5977H51.3873L57.0073 38.1202H54.4513L53.0276 33.9246ZM47.7088 31.9886H52.412L50.0934 25.1795H50.0286L47.7088 31.9886Z" fill="white"/>
<path d="M69.1454 32.4623C69.1454 35.9792 67.2578 38.2387 64.4093 38.2387C63.6877 38.2763 62.9701 38.1106 62.3386 37.7604C61.707 37.4102 61.1872 36.8898 60.8385 36.2587H60.7846V41.8641H58.4551V26.8031H60.71V28.6854H60.7528C61.1175 28.0574 61.6462 27.5396 62.2825 27.1873C62.9188 26.835 63.639 26.6613 64.3664 26.6847C67.2468 26.6847 69.1454 28.9552 69.1454 32.4623ZM66.751 32.4623C66.751 30.1711 65.5636 28.6647 63.7519 28.6647C61.972 28.6647 60.7748 30.2028 60.7748 32.4623C60.7748 34.7426 61.972 36.2697 63.7519 36.2697C65.5636 36.2697 66.751 34.7743 66.751 32.4623Z" fill="white"/>
<path d="M81.6357 32.4623C81.6357 35.9791 79.7481 38.2387 76.8995 38.2387C76.1779 38.2763 75.4603 38.1105 74.8288 37.7604C74.1973 37.4102 73.6774 36.8898 73.3287 36.2587H73.2748V41.8641H70.9453V26.8031H73.2002V28.6854H73.243C73.6077 28.0573 74.1364 27.5396 74.7727 27.1873C75.409 26.835 76.1292 26.6613 76.8566 26.6847C79.7371 26.6847 81.6357 28.9552 81.6357 32.4623ZM79.2413 32.4623C79.2413 30.171 78.0539 28.6647 76.2422 28.6647C74.4623 28.6647 73.2651 30.2028 73.2651 32.4623C73.2651 34.7426 74.4623 36.2697 76.2422 36.2697C78.0539 36.2697 79.2413 34.7743 79.2413 32.4623Z" fill="white"/>
<path d="M89.8905 33.7952C90.0631 35.3345 91.5627 36.3452 93.6119 36.3452C95.5754 36.3452 96.988 35.3345 96.988 33.9465C96.988 32.7417 96.136 32.0203 94.1186 31.5259L92.1013 31.0413C89.243 30.3528 87.916 29.0198 87.916 26.8567C87.916 24.1785 90.2565 22.3389 93.58 22.3389C96.8692 22.3389 99.1241 24.1785 99.2 26.8567H96.8484C96.7077 25.3076 95.4235 24.3726 93.547 24.3726C91.6704 24.3726 90.3862 25.3186 90.3862 26.6956C90.3862 27.793 91.2064 28.4387 93.2128 28.9331L94.9278 29.353C98.1215 30.1062 99.4485 31.3855 99.4485 33.656C99.4485 36.56 97.1287 38.3789 93.4392 38.3789C89.9872 38.3789 87.6564 36.6027 87.5059 33.7951L89.8905 33.7952Z" fill="white"/>
<path d="M104.477 24.125V26.8032H106.635V28.6428H104.477V34.8818C104.477 35.8511 104.909 36.3027 105.858 36.3027C106.114 36.2983 106.37 36.2803 106.624 36.249V38.0776C106.198 38.1571 105.764 38.1931 105.33 38.185C103.033 38.185 102.136 37.3244 102.136 35.1296V28.6428H100.486V26.8032H102.136V24.125H104.477Z" fill="white"/>
<path d="M107.885 32.4624C107.885 28.9016 109.988 26.6641 113.267 26.6641C116.558 26.6641 118.651 28.9016 118.651 32.4624C118.651 36.033 116.569 38.2607 113.267 38.2607C109.967 38.2607 107.885 36.033 107.885 32.4624ZM116.277 32.4624C116.277 30.0198 115.155 28.5781 113.267 28.5781C111.38 28.5781 110.258 30.0308 110.258 32.4624C110.258 34.9148 111.38 36.3455 113.267 36.3455C115.155 36.3455 116.277 34.9148 116.277 32.4624Z" fill="white"/>
<path d="M120.572 26.803H122.794V28.7293H122.848C122.998 28.1277 123.352 27.596 123.849 27.2236C124.346 26.8513 124.956 26.6609 125.578 26.6846C125.846 26.6836 126.114 26.7127 126.376 26.7713V28.9441C126.037 28.8408 125.683 28.7934 125.329 28.8037C124.991 28.79 124.653 28.8495 124.34 28.9782C124.027 29.1068 123.746 29.3014 123.515 29.5488C123.284 29.7962 123.11 30.0904 123.004 30.4112C122.898 30.732 122.863 31.0719 122.902 31.4075V38.1201H120.572L120.572 26.803Z" fill="white"/>
<path d="M137.116 34.7964C136.803 36.8508 134.797 38.2607 132.23 38.2607C128.928 38.2607 126.879 36.0549 126.879 32.5161C126.879 28.9663 128.939 26.6641 132.132 26.6641C135.272 26.6641 137.246 28.8149 137.246 32.2463V33.0422H129.23V33.1826C129.193 33.5991 129.246 34.0187 129.384 34.4135C129.522 34.8083 129.743 35.1693 130.032 35.4725C130.32 35.7756 130.67 36.0141 131.059 36.172C131.447 36.3299 131.864 36.4036 132.283 36.3882C132.834 36.4396 133.386 36.3125 133.859 36.0257C134.331 35.7389 134.698 35.3077 134.904 34.7964L137.116 34.7964ZM129.241 31.4187H134.915C134.936 31.0442 134.879 30.6694 134.748 30.3179C134.617 29.9664 134.414 29.6457 134.153 29.376C133.891 29.1063 133.577 28.8934 133.229 28.7506C132.881 28.6079 132.508 28.5383 132.132 28.5464C131.752 28.5441 131.376 28.6168 131.025 28.7602C130.674 28.9037 130.355 29.115 130.086 29.382C129.818 29.6491 129.605 29.9665 129.46 30.3161C129.315 30.6657 129.241 31.0404 129.241 31.4187Z" fill="white"/>
<path d="M44.4082 14.6451C44.4082 12.2263 45.6984 10.7322 47.777 10.7322C48.5262 10.6952 49.2619 10.9404 49.8381 11.4193C50.4143 11.8981 50.7889 12.5755 50.8875 13.317H49.7307C49.6337 12.8776 49.3848 12.4862 49.0277 12.2111C48.6706 11.9361 48.2279 11.795 47.777 11.8125C46.4341 11.8125 45.5944 12.9032 45.5944 14.6451C45.5944 16.3822 46.4341 17.4723 47.7819 17.4723C48.2163 17.5047 48.6485 17.3852 49.0041 17.1344C49.3598 16.8835 49.6167 16.517 49.7307 16.0978H50.8875C50.7747 16.8216 50.3923 17.4764 49.8166 17.9314C49.2409 18.3865 48.5144 18.6083 47.7819 18.5526C45.7034 18.5526 44.4082 17.0591 44.4082 14.6451Z" fill="white"/>
<path d="M52.1591 15.5552C52.1236 15.1853 52.166 14.8121 52.2837 14.4595C52.4013 14.107 52.5915 13.7828 52.8421 13.5078C53.0928 13.2328 53.3983 13.0131 53.739 12.8628C54.0798 12.7124 54.4483 12.6348 54.8209 12.6348C55.1936 12.6348 55.5621 12.7124 55.9029 12.8628C56.2436 13.0131 56.5491 13.2328 56.7998 13.5078C57.0504 13.7828 57.2406 14.107 57.3582 14.4595C57.4759 14.8121 57.5183 15.1853 57.4828 15.5552C57.519 15.9255 57.477 16.2992 57.3597 16.6524C57.2424 17.0056 57.0523 17.3303 56.8016 17.6058C56.5509 17.8814 56.2452 18.1015 55.9041 18.2522C55.563 18.4029 55.194 18.4807 54.8209 18.4807C54.4479 18.4807 54.0789 18.4029 53.7378 18.2522C53.3967 18.1015 53.091 17.8814 52.8403 17.6058C52.5896 17.3303 52.3995 17.0056 52.2822 16.6524C52.1648 16.2992 52.1229 15.9255 52.1591 15.5552ZM56.337 15.5552C56.337 14.3352 55.7874 13.6217 54.8228 13.6217C53.8545 13.6217 53.3098 14.3352 53.3098 15.5553C53.3098 16.7851 53.8545 17.4931 54.8228 17.4931C55.7874 17.4931 56.337 16.7802 56.337 15.5552Z" fill="white"/>
<path d="M58.9766 12.7431H60.0489V13.6373H60.1321C60.2734 13.3161 60.5115 13.0469 60.8135 12.8671C61.1154 12.6874 61.4661 12.606 61.8165 12.6344C62.0912 12.6139 62.367 12.6552 62.6234 12.7553C62.8799 12.8554 63.1105 13.0118 63.2981 13.2128C63.4857 13.4139 63.6256 13.6545 63.7073 13.9167C63.7891 14.179 63.8106 14.4563 63.7703 14.7279V18.3717H62.6563V15.0069C62.6563 14.1024 62.2621 13.6525 61.4383 13.6525C61.2518 13.6439 61.0657 13.6755 60.8926 13.7453C60.7196 13.8151 60.5637 13.9214 60.4357 14.0568C60.3077 14.1923 60.2105 14.3538 60.151 14.5302C60.0914 14.7066 60.0708 14.8938 60.0905 15.0789V18.3718H58.9766V12.7431Z" fill="white"/>
<path d="M67.5568 12.6348C68.8263 12.6348 69.6562 13.2238 69.7652 14.2162H68.6965C68.5937 13.803 68.1885 13.5393 67.5568 13.5393C66.935 13.5393 66.4625 13.8335 66.4625 14.273C66.4625 14.6092 66.7477 14.8211 67.3598 14.9608L68.2974 15.1775C69.371 15.4259 69.8741 15.8861 69.8741 16.7131C69.8741 17.7727 68.8838 18.4807 67.536 18.4807C66.1932 18.4807 65.3179 17.8759 65.2188 16.8785H66.334C66.4301 17.1159 66.6033 17.3142 66.826 17.4416C67.0487 17.569 67.3078 17.6181 67.5618 17.581C68.2559 17.581 68.7492 17.271 68.7492 16.8212C68.7492 16.4855 68.4848 16.2682 67.9192 16.1339L66.935 15.9062C65.8615 15.6529 65.3645 15.1726 65.3645 14.3352C65.3644 13.3373 66.2813 12.6348 67.5568 12.6348Z" fill="white"/>
<path d="M71.2812 11.8024L72.5825 10.0244H73.8887L72.4319 11.8024H71.2812ZM71.3963 12.7435H72.5054V18.3722H71.3963V12.7435Z" fill="white"/>
<path d="M74.2384 18.936H75.3781C75.4724 19.3443 75.9436 19.608 76.6953 19.608C77.6231 19.608 78.1728 19.1685 78.1728 18.4245V17.3442H78.0895C77.9148 17.6466 77.6596 17.895 77.3522 18.0618C77.0448 18.2287 76.6971 18.3075 76.3476 18.2896C74.9068 18.2896 74.0156 17.1788 74.0156 15.4936C74.0156 13.7774 74.9166 12.6506 76.3586 12.6506C76.7169 12.6382 77.0717 12.7241 77.3843 12.8992C77.6969 13.0742 77.9553 13.3315 78.1311 13.643H78.2193V12.744H79.2867V18.419C79.2867 19.7062 78.2756 20.5229 76.6793 20.5229C75.2691 20.5229 74.3572 19.8924 74.2384 18.936ZM78.1936 15.4881C78.1936 14.3669 77.6121 13.6485 76.6634 13.6485C75.7049 13.6485 75.1663 14.3669 75.1663 15.4881C75.1663 16.6099 75.7049 17.3283 76.6634 17.3283C77.6182 17.3283 78.1936 16.6154 78.1936 15.4881Z" fill="white"/>
<path d="M85.8202 18.3718H84.7467V17.4777H84.6585C84.5158 17.8021 84.2744 18.0736 83.9683 18.2536C83.6622 18.4336 83.3071 18.513 82.9533 18.4805C82.6803 18.4998 82.4064 18.4579 82.1518 18.3579C81.8971 18.2579 81.6681 18.1023 81.4816 17.9025C81.2951 17.7027 81.1559 17.4639 81.0741 17.2034C80.9922 16.9429 80.9699 16.6675 81.0088 16.3974V12.7432H82.1246V16.108C82.1246 17.0175 82.4919 17.452 83.3108 17.452C83.5007 17.47 83.6922 17.4455 83.8713 17.3802C84.0505 17.315 84.2128 17.2107 84.3464 17.075C84.48 16.9392 84.5815 16.7755 84.6436 16.5956C84.7056 16.4158 84.7266 16.2244 84.7051 16.0354V12.7432H85.8202V18.3718Z" fill="white"/>
<path d="M92.3683 16.8524C92.2169 17.3668 91.889 17.8118 91.4419 18.1095C90.9948 18.4072 90.457 18.5386 89.9225 18.4808C89.5506 18.4906 89.1811 18.4196 88.8395 18.2727C88.4979 18.1258 88.1925 17.9065 87.9444 17.6301C87.6963 17.3536 87.5115 17.0267 87.4028 16.6719C87.2942 16.3171 87.2642 15.943 87.3151 15.5755C87.2656 15.2069 87.296 14.832 87.4045 14.4762C87.5129 14.1203 87.6967 13.7919 87.9435 13.513C88.1902 13.2342 88.4942 13.0115 88.8348 12.86C89.1754 12.7085 89.5446 12.6317 89.9176 12.6349C91.4881 12.6349 92.4356 13.7049 92.4356 15.4724V15.86H88.4498V15.9222C88.4324 16.1288 88.4584 16.3367 88.5263 16.5326C88.5941 16.7286 88.7023 16.9082 88.8438 17.06C88.9853 17.2119 89.1571 17.3325 89.3481 17.4143C89.5392 17.496 89.7452 17.537 89.9531 17.5347C90.2195 17.5666 90.4895 17.5188 90.7286 17.3973C90.9677 17.2758 91.1652 17.0861 91.2959 16.8524L92.3683 16.8524ZM88.4498 15.0384H91.3008C91.3149 14.8495 91.2891 14.6598 91.2252 14.4814C91.1614 14.303 91.0608 14.1399 90.9299 14.0026C90.7991 13.8652 90.6409 13.7567 90.4655 13.684C90.2901 13.6113 90.1013 13.576 89.9114 13.5803C89.7188 13.5779 89.5276 13.614 89.3491 13.6864C89.1706 13.7588 89.0085 13.8661 88.8723 14.002C88.7361 14.1379 88.6285 14.2996 88.556 14.4776C88.4834 14.6556 88.4473 14.8463 88.4498 15.0384Z" fill="white"/>
<path d="M93.9844 10.5459H95.0983V18.3718H93.9844V10.5459Z" fill="white"/>
<path d="M96.6454 15.5552C96.6099 15.1853 96.6523 14.8121 96.77 14.4595C96.8876 14.107 97.0778 13.7828 97.3285 13.5078C97.5791 13.2328 97.8846 13.0131 98.2254 12.8628C98.5661 12.7124 98.9346 12.6348 99.3073 12.6348C99.6799 12.6348 100.048 12.7124 100.389 12.8628C100.73 13.0131 101.035 13.2328 101.286 13.5078C101.537 13.7828 101.727 14.107 101.845 14.4595C101.962 14.8121 102.005 15.1853 101.969 15.5552C102.005 15.9255 101.963 16.2992 101.846 16.6524C101.729 17.0056 101.539 17.3303 101.288 17.6058C101.037 17.8814 100.732 18.1015 100.39 18.2522C100.049 18.4029 99.6803 18.4807 99.3073 18.4807C98.9342 18.4807 98.5653 18.4029 98.2241 18.2522C97.883 18.1015 97.5773 17.8814 97.3266 17.6058C97.0759 17.3303 96.8858 17.0056 96.7685 16.6524C96.6512 16.2992 96.6092 15.9255 96.6454 15.5552ZM100.823 15.5552C100.823 14.3352 100.274 13.6217 99.3091 13.6217C98.3408 13.6217 97.7961 14.3352 97.7961 15.5553C97.7961 16.7851 98.3409 17.4931 99.3091 17.4931C100.274 17.4931 100.823 16.7802 100.823 15.5552Z" fill="white"/>
<path d="M111.3 16.8524C111.149 17.3668 110.821 17.8118 110.374 18.1095C109.926 18.4072 109.389 18.5386 108.854 18.4808C108.482 18.4906 108.113 18.4196 107.771 18.2727C107.43 18.1258 107.124 17.9065 106.876 17.6301C106.628 17.3536 106.443 17.0267 106.334 16.6719C106.226 16.3171 106.196 15.943 106.247 15.5755C106.197 15.2069 106.228 14.832 106.336 14.4762C106.445 14.1203 106.628 13.7919 106.875 13.513C107.122 13.2342 107.426 13.0115 107.766 12.86C108.107 12.7085 108.476 12.6317 108.849 12.6349C110.42 12.6349 111.367 13.7049 111.367 15.4724V15.86H107.382V15.9222C107.364 16.1288 107.39 16.3367 107.458 16.5326C107.526 16.7286 107.634 16.9082 107.775 17.06C107.917 17.2119 108.089 17.3325 108.28 17.4143C108.471 17.496 108.677 17.537 108.885 17.5347C109.151 17.5666 109.421 17.5188 109.66 17.3973C109.899 17.2758 110.097 17.0861 110.228 16.8524L111.3 16.8524ZM107.381 15.0384H110.233C110.247 14.8495 110.221 14.6598 110.157 14.4814C110.093 14.303 109.993 14.1399 109.862 14.0026C109.731 13.8652 109.573 13.7567 109.397 13.684C109.222 13.6113 109.033 13.576 108.843 13.5803C108.65 13.5779 108.459 13.614 108.281 13.6864C108.102 13.7588 107.94 13.8661 107.804 14.002C107.668 14.1379 107.56 14.2996 107.488 14.4776C107.415 14.6556 107.379 14.8463 107.381 15.0384Z" fill="white"/>
<path d="M112.863 12.7431H113.936V13.6373H114.019C114.16 13.3161 114.398 13.0469 114.7 12.8671C115.002 12.6874 115.353 12.606 115.703 12.6344C115.978 12.6139 116.254 12.6552 116.51 12.7553C116.767 12.8554 116.997 13.0118 117.185 13.2128C117.372 13.4139 117.512 13.6545 117.594 13.9167C117.676 14.179 117.697 14.4563 117.657 14.7279V18.3717H116.543V15.0069C116.543 14.1024 116.149 13.6525 115.325 13.6525C115.139 13.6439 114.952 13.6755 114.779 13.7453C114.606 13.8151 114.45 13.9214 114.322 14.0568C114.194 14.1923 114.097 14.3538 114.038 14.5302C113.978 14.7066 113.957 14.8938 113.977 15.0789V18.3718H112.863V12.7431Z" fill="white"/>
<path d="M127.216 16.8524C127.065 17.3668 126.737 17.8118 126.29 18.1095C125.842 18.4072 125.305 18.5386 124.77 18.4808C124.398 18.4906 124.029 18.4196 123.687 18.2727C123.346 18.1258 123.04 17.9065 122.792 17.6301C122.544 17.3536 122.359 17.0267 122.25 16.6719C122.142 16.3171 122.112 15.943 122.163 15.5755C122.113 15.2069 122.144 14.832 122.252 14.4762C122.361 14.1203 122.544 13.7919 122.791 13.513C123.038 13.2342 123.342 13.0115 123.682 12.86C124.023 12.7085 124.392 12.6317 124.765 12.6349C126.336 12.6349 127.283 13.7049 127.283 15.4724V15.86H123.298V15.9222C123.28 16.1288 123.306 16.3367 123.374 16.5326C123.442 16.7286 123.55 16.9082 123.691 17.06C123.833 17.2119 124.005 17.3325 124.196 17.4143C124.387 17.496 124.593 17.537 124.801 17.5347C125.067 17.5666 125.337 17.5188 125.576 17.3973C125.815 17.2758 126.013 17.0861 126.144 16.8524L127.216 16.8524ZM123.297 15.0384H126.148C126.163 14.8495 126.137 14.6598 126.073 14.4814C126.009 14.303 125.908 14.1399 125.778 14.0026C125.647 13.8652 125.489 13.7567 125.313 13.684C125.138 13.6113 124.949 13.576 124.759 13.5803C124.566 13.5779 124.375 13.614 124.197 13.6864C124.018 13.7588 123.856 13.8662 123.72 14.0021C123.584 14.1379 123.476 14.2997 123.404 14.4776C123.331 14.6556 123.295 14.8463 123.297 15.0384Z" fill="white"/>
<path d="M128.83 10.5459H129.944V18.3718H128.83V10.5459Z" fill="white"/>
</g>
<defs>
<clipPath id="clip0_1150_594">
<rect width="150" height="50" fill="white"/>
</clipPath>
</defs>
</svg>
