<svg width="33" height="33" viewBox="0 0 33 33" fill="none" xmlns="http://www.w3.org/2000/svg">
<rect x="1" y="1.18604" width="31" height="31" rx="15.5" fill="white"/>
<path d="M19.334 23.5196C20.066 23.4861 20.5661 23.3703 21.0036 23.2002C21.4556 23.0246 21.8385 22.7891 22.2205 22.4067C22.603 22.0246 22.8379 21.641 23.0141 21.189M19.334 23.5196L19.3113 23.0201M19.334 23.5196L19.3112 23.0201C19.3112 23.0201 19.3112 23.0201 19.3113 23.0201M19.334 23.5196C18.6007 23.553 18.3671 23.5612 16.4998 23.5612C14.6328 23.5612 14.3986 23.553 13.6652 23.5196M19.3113 23.0201C19.9961 22.9887 20.4419 22.8821 20.8224 22.7342L20.8225 22.7342C21.2141 22.582 21.5371 22.3834 21.8668 22.0533L21.8671 22.053C22.1967 21.7237 22.395 21.4002 22.548 21.008M19.3113 23.0201C18.5893 23.053 18.3645 23.0612 16.4998 23.0612C14.6354 23.0612 14.41 23.053 13.688 23.0201M22.548 21.008C22.5479 21.0082 22.5478 21.0085 22.5477 21.0088L23.0141 21.189M22.548 21.008C22.548 21.0078 22.5481 21.0076 22.5482 21.0074L23.0141 21.189M22.548 21.008C22.6951 20.627 22.8018 20.1813 22.8339 19.4976M23.0141 21.189C23.183 20.7517 23.2991 20.2519 23.3334 19.5204M23.3334 19.5204L22.8339 19.4979C22.8339 19.4978 22.8339 19.4977 22.8339 19.4976M23.3334 19.5204C23.3664 18.787 23.375 18.5533 23.375 16.6861C23.375 14.8189 23.3664 14.5846 23.3334 13.8513M23.3334 19.5204L22.834 19.4969C22.834 19.4971 22.834 19.4974 22.8339 19.4976M22.8339 19.4976C22.8664 18.7755 22.875 18.5502 22.875 16.6861C22.875 14.8222 22.8664 14.5962 22.834 13.8742M23.3334 13.8513L22.834 13.8747C22.834 13.8746 22.834 13.8744 22.834 13.8742M23.3334 13.8513C23.2991 13.1194 23.183 12.6198 23.0141 12.1826M23.3334 13.8513L22.8339 13.8737C22.8339 13.8739 22.8339 13.8741 22.834 13.8742M22.834 13.8742C22.8018 13.1899 22.6951 12.7443 22.5479 12.3635M23.0141 12.1826L22.5482 12.3642C22.5481 12.3639 22.548 12.3637 22.5479 12.3635M23.0141 12.1826C22.8379 11.7305 22.603 11.3469 22.2205 10.9648M23.0141 12.1826L22.5477 12.3629C22.5478 12.3631 22.5478 12.3633 22.5479 12.3635M22.5479 12.3635C22.395 11.9712 22.1967 11.6477 21.8671 11.3184L21.867 11.3183C21.5369 10.9882 21.2144 10.7902 20.8224 10.6382L20.8223 10.6381C20.4406 10.4901 19.9949 10.3834 19.3103 10.3521L22.2205 10.9648M22.2205 10.9648C21.8381 10.5823 21.4557 10.3474 21.0031 10.172L22.2205 10.9648ZM13.688 23.0201C13.688 23.0201 13.6881 23.0201 13.6881 23.0201L13.6652 23.5196M13.688 23.0201C13.0034 22.9887 12.5581 22.8821 12.1775 22.7342L12.1775 22.7342C11.7857 22.5819 11.4622 22.3833 11.1326 22.0533L11.1323 22.0531C10.8027 21.7236 10.6045 21.4001 10.452 21.0078L10.452 21.0077C10.3042 20.6273 10.1975 20.1822 10.166 19.4976L9.66654 19.5202M13.688 23.0201L13.6652 23.5196M13.6652 23.5196C12.9335 23.4861 12.4338 23.3703 11.9963 23.2002C11.5444 23.0246 11.1609 22.7891 10.7789 22.4067C10.3966 22.0246 10.1617 21.641 9.98594 21.1889C9.81607 20.7517 9.7002 20.2521 9.66654 19.5202M9.66654 19.5202C9.63331 18.7869 9.625 18.5533 9.625 16.6861C9.625 14.8189 9.63359 14.5845 9.66639 13.8511L10.166 19.4975M9.66654 19.5202L10.166 19.4972C10.166 19.4973 10.166 19.4974 10.166 19.4975M10.166 19.4975C10.1333 18.7754 10.125 18.5505 10.125 16.6861C10.125 14.8219 10.1336 14.5959 10.1659 13.8736L10.166 19.4975ZM12.1784 10.638L12.1782 10.6381C11.7859 10.7904 11.4624 10.9886 11.1329 11.3182L11.1327 11.3184C10.803 11.6479 10.6047 11.9715 10.4517 12.3641L10.4517 12.3641C10.3035 12.7443 10.1967 13.1894 10.1659 13.8735L12.1784 10.638ZM12.1784 10.638C12.5587 10.4901 13.0039 10.3834 13.6886 10.3521L12.1784 10.638ZM19.3014 10.59L19.3015 10.59C20.027 10.6232 20.4442 10.7468 20.7362 10.8602L20.7362 10.8602C21.1211 11.0097 21.4088 11.1967 21.6988 11.4869C21.9892 11.7773 22.176 12.0654 22.3256 12.4497L22.3257 12.4499C22.4392 12.7417 22.5629 13.159 22.5959 13.8846C22.6295 14.6208 22.6365 14.8475 22.6365 16.6845C22.6365 18.5215 22.6295 18.7482 22.5959 19.4845L22.5959 19.4846C22.5628 20.2099 22.4392 20.6271 22.3258 20.9189L19.3014 10.59ZM19.3014 10.59C18.5649 10.5566 18.3381 10.55 16.5007 10.55C16.5007 10.55 16.5006 10.55 16.5006 10.55L16.2715 10.5499L16.2714 10.5499L16.2634 10.5499C16.143 10.5499 16.0297 10.5498 15.9233 10.5499C15.9097 10.5488 15.8961 10.5482 15.8825 10.5483L15.8824 10.5483C14.597 10.5497 14.3435 10.5584 13.6999 10.5874L13.6996 10.5875C12.9747 10.6207 12.5572 10.7439 12.2645 10.858C11.8801 11.0077 11.592 11.1945 11.3017 11.4849M19.3014 10.59L11.3017 11.4849M19.3016 22.7783L19.3013 22.7784C18.5652 22.8117 18.3385 22.8189 16.5006 22.8189C14.6625 22.8189 14.436 22.8117 13.6998 22.7784L13.6994 22.7783C12.974 22.7449 12.557 22.6212 12.265 22.5079L12.2648 22.5079C11.8801 22.3585 11.592 22.1714 11.3017 21.8811L19.3016 22.7783ZM19.3016 22.7783C20.0266 22.7451 20.4444 22.6219 20.737 22.5077L19.3016 22.7783ZM10.6748 20.9187L10.6747 20.9186C10.5613 20.6268 10.4375 20.2095 10.4045 19.4839L10.4045 19.4839C10.371 18.7475 10.3645 18.5206 10.3645 16.6828C10.3645 14.845 10.371 14.6193 10.4045 13.8829L10.4045 13.8827C10.4377 13.1572 10.5613 12.7401 10.6747 12.4481L10.6747 12.4481C10.8242 12.0632 11.0115 11.7751 11.3017 11.4849C11.3017 11.4849 11.3017 11.4849 11.3017 11.4849M10.6748 20.9187L11.3017 11.4849M10.6748 20.9187C10.8246 21.3036 11.0116 21.591 11.3017 21.8811L10.6748 20.9187ZM13.6887 10.352C14.4103 10.3192 14.636 10.311 16.4985 10.311L13.6887 10.352ZM16.5006 10.311C18.3637 10.311 18.5885 10.3192 19.3102 10.352L16.5006 10.311ZM15.3838 11.0491C15.3838 11.0492 15.3838 11.0493 15.3838 11.0494V11.0491ZM21.6988 21.8813C21.9887 21.5916 22.1761 21.3043 22.3257 20.9191L21.6988 21.8813ZM19.8454 13.0162C19.8454 12.837 19.9908 12.6915 20.1704 12.6915C20.35 12.6915 20.4955 12.8372 20.4955 13.0162C20.4955 13.1955 20.3498 13.3413 20.1704 13.3413C19.9911 13.3413 19.8454 13.1956 19.8454 13.0162ZM13.47 16.6861C13.47 15.0125 14.8269 13.6555 16.5005 13.6555H16.5005C18.1741 13.6555 19.5307 15.0124 19.5307 16.6861C19.5307 18.3597 18.1743 19.7161 16.5007 19.7161C14.8269 19.7161 13.47 18.3596 13.47 16.6861ZM19.2924 16.6861C19.2924 15.1442 18.0424 13.8944 16.5007 13.8944C14.9588 13.8944 13.709 15.1442 13.709 16.6861C13.709 18.2278 14.9588 19.4778 16.5007 19.4778C18.0424 19.4778 19.2924 18.2278 19.2924 16.6861Z" fill="#181D4E" stroke="#181D4E"/>
<rect x="1" y="1.18604" width="31" height="31" rx="15.5" stroke="#E5E7EB"/>
</svg>
