<?xml version="1.0" encoding="UTF-8"?>
<svg xmlns="http://www.w3.org/2000/svg" xmlns:xlink="http://www.w3.org/1999/xlink" width="34px" height="35px" viewBox="0 0 34 34" version="1.1">
<defs>
<clipPath id="clip1">
  <path d="M 1 1 L 33 1 L 33 33 L 1 33 Z M 1 1 "/>
</clipPath>
<clipPath id="clip2">
  <path d="M 17 1.734375 C 25.605469 1.734375 32.582031 8.570312 32.582031 17 C 32.582031 25.429688 25.605469 32.265625 17 32.265625 C 8.394531 32.265625 1.417969 25.429688 1.417969 17 C 1.417969 8.570312 8.394531 1.734375 17 1.734375 Z M 17 1.734375 "/>
</clipPath>
<clipPath id="clip3">
  <path d="M 8 11 L 23 11 L 23 23 L 8 23 Z M 8 11 "/>
</clipPath>
<clipPath id="clip4">
  <path d="M 17 1.734375 C 25.605469 1.734375 32.582031 8.570312 32.582031 17 C 32.582031 25.429688 25.605469 32.265625 17 32.265625 C 8.394531 32.265625 1.417969 25.429688 1.417969 17 C 1.417969 8.570312 8.394531 1.734375 17 1.734375 Z M 17 1.734375 "/>
</clipPath>
</defs>
<g id="surface1">
<g clip-path="url(#clip1)" clip-rule="nonzero">
<g clip-path="url(#clip2)" clip-rule="nonzero">
<path style=" stroke:none;fill-rule:nonzero;fill:rgb(100%,100%,100%);fill-opacity:1;" d="M 17 1.734375 C 25.605469 1.734375 32.582031 8.570312 32.582031 17 C 32.582031 25.429688 25.605469 32.265625 17 32.265625 C 8.394531 32.265625 1.417969 25.429688 1.417969 17 C 1.417969 8.570312 8.394531 1.734375 17 1.734375 Z M 17 1.734375 "/>
</g>
</g>
<g clip-path="url(#clip3)" clip-rule="nonzero">
<g clip-path="url(#clip4)" clip-rule="nonzero">
<path style=" stroke:none;fill-rule:nonzero;fill:rgb(9.411765%,11.372549%,30.588235%);fill-opacity:1;" d="M 8.773438 16.667969 C 10.234375 15.878906 11.867188 15.21875 13.390625 14.558594 C 16.015625 13.476562 18.648438 12.410156 21.304688 11.417969 C 21.824219 11.25 22.753906 11.085938 22.84375 11.835938 C 22.792969 12.898438 22.589844 13.957031 22.449219 15.011719 C 22.089844 17.335938 21.675781 19.652344 21.273438 21.96875 C 21.136719 22.742188 20.148438 23.140625 19.515625 22.648438 C 18 21.644531 16.472656 20.648438 14.972656 19.621094 C 14.480469 19.132812 14.9375 18.433594 15.375 18.082031 C 16.625 16.875 17.949219 15.851562 19.136719 14.582031 C 19.453125 13.828125 18.511719 14.464844 18.199219 14.660156 C 16.488281 15.8125 14.820312 17.039062 13.015625 18.054688 C 12.09375 18.550781 11.019531 18.125 10.097656 17.847656 C 9.273438 17.515625 8.0625 17.175781 8.773438 16.667969 Z M 8.773438 16.667969 "/>
</g>
</g>
<path style="fill:none;stroke-width:2;stroke-linecap:butt;stroke-linejoin:miter;stroke:rgb(89.803922%,90.588235%,92.156863%);stroke-opacity:1;stroke-miterlimit:4;" d="M 24 1.497472 C 36.700368 1.497472 47.001838 11.799632 47.001838 24.5 C 47.001838 37.200368 36.700368 47.502528 24 47.502528 C 11.299632 47.502528 0.998162 37.200368 0.998162 24.5 C 0.998162 11.799632 11.299632 1.497472 24 1.497472 Z M 24 1.497472 " transform="matrix(0.708333,0,0,0.693878,0,0)"/>
</g>
</svg>
