<svg width="35" height="24" viewBox="0 0 35 24" fill="none" xmlns="http://www.w3.org/2000/svg">
<rect x="1" y="0.5" width="33" height="23" rx="3.5" fill="white"/>
<path fill-rule="evenodd" clip-rule="evenodd" d="M15.114 18.4483L15.3347 16.9992L14.8431 16.9873H12.4951L14.1268 6.2937C14.1319 6.26132 14.1484 6.23126 14.1724 6.20987C14.1965 6.18849 14.2272 6.17676 14.2594 6.17676H18.2184C19.5328 6.17676 20.4398 6.45939 20.9133 7.01734C21.1353 7.27908 21.2767 7.55267 21.3452 7.85364C21.4169 8.16951 21.4181 8.54685 21.3481 9.00715L21.343 9.04063V9.33561L21.5651 9.46563C21.752 9.56815 21.9006 9.68546 22.0145 9.81975C22.2044 10.0436 22.3272 10.3281 22.3791 10.6652C22.4328 11.012 22.4151 11.4248 22.3272 11.892C22.2259 12.4295 22.0622 12.8976 21.841 13.2805C21.6376 13.6334 21.3785 13.9262 21.0708 14.153C20.777 14.3686 20.428 14.5322 20.0333 14.6369C19.6509 14.7398 19.2149 14.7917 18.7367 14.7917H18.4286C18.2083 14.7917 17.9943 14.8737 17.8263 15.0207C17.6579 15.1708 17.5465 15.3758 17.5123 15.6L17.489 15.7305L17.099 18.2848L17.0814 18.3785C17.0767 18.4082 17.0686 18.423 17.0568 18.433C17.0463 18.4422 17.0311 18.4483 17.0164 18.4483H15.114Z" fill="#28356A"/>
<path fill-rule="evenodd" clip-rule="evenodd" d="M21.7756 9.07471C21.7639 9.15279 21.7503 9.23258 21.7352 9.31458C21.2131 12.0852 19.4268 13.0424 17.1456 13.0424H15.984C15.705 13.0424 15.4698 13.2517 15.4265 13.5362L14.6633 18.5394C14.6351 18.7263 14.7743 18.8945 14.9566 18.8945H17.0168C17.2607 18.8945 17.468 18.7113 17.5064 18.4627L17.5266 18.3545L17.9145 15.8103L17.9394 15.6708C17.9774 15.4213 18.1851 15.238 18.429 15.238H18.7371C20.7331 15.238 22.2957 14.4004 22.7524 11.9766C22.9431 10.9641 22.8443 10.1186 22.3395 9.52402C22.1868 9.34476 21.9973 9.19592 21.7756 9.07471Z" fill="#298FC2"/>
<path fill-rule="evenodd" clip-rule="evenodd" d="M21.2291 8.84968C21.1493 8.82561 21.067 8.80386 20.9826 8.78419C20.8977 8.765 20.8108 8.74802 20.7213 8.73311C20.4081 8.68081 20.0649 8.65601 19.6974 8.65601H16.5943C16.5178 8.65601 16.4452 8.67385 16.3803 8.70611C16.2372 8.77722 16.1309 8.91726 16.1051 9.0887L15.4449 13.4102L15.426 13.5362C15.4694 13.2517 15.7046 13.0424 15.9836 13.0424H17.1451C19.4264 13.0424 21.2126 12.0848 21.7347 9.31463C21.7503 9.23264 21.7634 9.15285 21.7751 9.07477C21.6431 9.00231 21.5 8.94035 21.346 8.88756C21.3079 8.87449 21.2687 8.8619 21.2291 8.84968Z" fill="#22284F"/>
<path fill-rule="evenodd" clip-rule="evenodd" d="M16.1054 9.08862C16.1312 8.91718 16.2374 8.77715 16.3806 8.70652C16.446 8.67414 16.5181 8.6563 16.5946 8.6563H19.6976C20.0652 8.6563 20.4084 8.68123 20.7216 8.73353C20.8111 8.74831 20.898 8.76542 20.9829 8.7846C21.0673 8.80415 21.1495 8.82603 21.2294 8.84998C21.269 8.8622 21.3082 8.8749 21.3466 8.88749C21.5007 8.94028 21.6438 9.00272 21.7759 9.07469C21.9312 8.05082 21.7746 7.3537 21.239 6.72245C20.6485 6.0274 19.5828 5.72998 18.2191 5.72998H14.26C13.9815 5.72998 13.7439 5.9393 13.7008 6.22426L12.0518 17.0279C12.0193 17.2416 12.1788 17.4344 12.3873 17.4344H14.8315L16.1054 9.08862Z" fill="#28356A"/>
<rect x="1" y="0.5" width="33" height="23" rx="3.5" stroke="#E5E7EB"/>
</svg>
