<svg width="35" height="35" viewBox="0 0 35 35" fill="none" xmlns="http://www.w3.org/2000/svg">
<rect x="1.5" y="1.68604" width="32" height="32" rx="16" fill="white"/>
<path d="M17.3195 15.434L17.3466 15.8807L16.895 15.826C15.2511 15.6163 13.8151 14.9051 12.5958 13.7106L11.9997 13.1179L11.8461 13.5556C11.521 14.5312 11.7287 15.5616 12.4061 16.2546C12.7674 16.6376 12.6861 16.6923 12.0629 16.4643C11.8461 16.3914 11.6564 16.3367 11.6384 16.364C11.5751 16.4278 11.7919 17.2576 11.9635 17.5859C12.1984 18.0418 12.677 18.4886 13.2009 18.753L13.6435 18.9627L13.1196 18.9719C12.6138 18.9719 12.5958 18.981 12.65 19.1725C12.8306 19.7651 13.5441 20.3943 14.3389 20.6679L14.8989 20.8593L14.4112 21.1511C13.6886 21.5706 12.8396 21.8077 11.9906 21.8259C11.5842 21.835 11.25 21.8715 11.25 21.8988C11.25 21.99 12.3519 22.5006 12.9932 22.7012C14.917 23.2939 17.202 23.0386 18.9181 22.0265C20.1374 21.3061 21.3567 19.8746 21.9258 18.4886C22.2328 17.75 22.5399 16.4005 22.5399 15.7531C22.5399 15.3336 22.567 15.2789 23.0728 14.7774C23.3709 14.4856 23.6509 14.1665 23.705 14.0753C23.7954 13.9021 23.7863 13.9021 23.3257 14.0571C22.558 14.3306 22.4496 14.2942 22.8289 13.8838C23.1089 13.5921 23.4431 13.0632 23.4431 12.9082C23.4431 12.8808 23.3076 12.9264 23.1541 13.0085C22.9915 13.0997 22.6302 13.2364 22.3593 13.3185L21.8716 13.4735L21.429 13.1726C21.1851 13.0085 20.8419 12.8261 20.6613 12.7714C20.2007 12.6437 19.4962 12.662 19.0807 12.8079C17.9517 13.2182 17.2382 14.2759 17.3195 15.434Z" fill="#181D4E"/>
<rect x="1.5" y="1.68604" width="32" height="32" rx="16" stroke="#E5E7EB" stroke-width="2"/>
</svg>
