<svg width="35" height="24" viewBox="0 0 35 24" fill="none" xmlns="http://www.w3.org/2000/svg">
<rect x="1" y="0.5" width="33" height="23" rx="3.5" fill="white"/>
<path fill-rule="evenodd" clip-rule="evenodd" d="M11.2278 15.4682H9.24508L7.75826 9.6291C7.68769 9.3605 7.53785 9.12304 7.31744 9.01113C6.76737 8.72987 6.16124 8.50604 5.5 8.39315V8.16834H8.69405C9.13487 8.16834 9.46549 8.50604 9.5206 8.89824L10.292 13.1102L12.2738 8.16834H14.2015L11.2278 15.4682ZM15.3035 15.4682H13.4309L14.9729 8.16834H16.8454L15.3035 15.4682ZM19.268 10.1906C19.3231 9.79748 19.6537 9.57267 20.0394 9.57267C20.6456 9.51623 21.3059 9.62912 21.8569 9.90939L22.1875 8.3377C21.6365 8.11289 21.0303 8 20.4803 8C18.6628 8 17.3404 9.01114 17.3404 10.4145C17.3404 11.4821 18.2771 12.0426 18.9383 12.3803C19.6537 12.717 19.9292 12.9418 19.8741 13.2786C19.8741 13.7837 19.3231 14.0085 18.773 14.0085C18.1118 14.0085 17.4506 13.8401 16.8454 13.5588L16.5148 15.1315C17.176 15.4118 17.8914 15.5247 18.5526 15.5247C20.5905 15.5802 21.8569 14.57 21.8569 13.0538C21.8569 11.1444 19.268 11.0325 19.268 10.1906ZM28.41 15.4683L26.9232 8.16837H25.3261C24.9955 8.16837 24.6649 8.39317 24.5547 8.7299L21.8015 15.4683H23.7291L24.1139 14.4016H26.4823L26.7028 15.4683H28.41ZM25.602 10.1343L26.152 12.8855H24.6101L25.602 10.1343Z" fill="#172B85"/>
<rect x="1" y="0.5" width="33" height="23" rx="3.5" stroke="#E5E7EB"/>
</svg>
