<svg width="35" height="35" viewBox="0 0 35 35" fill="none" xmlns="http://www.w3.org/2000/svg">
<rect x="1.5" y="1.68604" width="32" height="32" rx="16" fill="white"/>
<path d="M23.2277 13.49L23.228 13.4901C23.6961 13.6185 24.0739 14.0009 24.2026 14.4955L24.2027 14.4958C24.345 15.0408 24.4222 15.9203 24.4614 16.6987C24.4807 17.0806 24.4904 17.426 24.4952 17.676C24.4976 17.8009 24.4988 17.9016 24.4994 17.9709L24.4999 18.0503L24.5 18.0704L24.5 18.0753L24.5 18.0764V18.0766V18.0766V18.0767V18.0767V18.0769L24.5 18.078L24.5 18.0829L24.4999 18.103L24.4994 18.1824C24.4988 18.2516 24.4976 18.3524 24.4952 18.4773C24.4904 18.7273 24.4807 19.0727 24.4614 19.4546C24.4222 20.2329 24.345 21.1124 24.2027 21.6575L24.2026 21.6578C24.0739 22.1524 23.6961 22.5348 23.228 22.6633L23.2277 22.6634C22.9884 22.7292 22.522 22.7874 21.9139 22.8329C21.3201 22.8774 20.6323 22.9073 19.9763 22.9273C19.3211 22.9473 18.7016 22.9573 18.2457 22.9623C18.0178 22.9648 17.8311 22.966 17.7014 22.9667L17.5518 22.9672L17.5129 22.9673L17.5031 22.9673L17.5007 22.9673H17.5001H17.5L17.5 23.4673L17.5 22.9673H17.4999H17.4993L17.4969 22.9673L17.4871 22.9673L17.4482 22.9672L17.2986 22.9667C17.1689 22.966 16.9822 22.9648 16.7543 22.9623C16.2984 22.9573 15.6789 22.9473 15.0237 22.9273C14.3677 22.9073 13.6799 22.8774 13.0861 22.8329C12.478 22.7874 12.0115 22.7292 11.7722 22.6634L11.772 22.6633C11.3038 22.5348 10.926 22.1524 10.7973 21.6578L10.7972 21.6575C10.655 21.1125 10.5778 20.2329 10.5385 19.4546C10.5193 19.0727 10.5096 18.7273 10.5048 18.4773C10.5024 18.3524 10.5012 18.2517 10.5006 18.1824L10.5001 18.103L10.5 18.0829L10.5 18.078L10.5 18.0769L10.5 18.0767V18.0767V18.0767V18.0766V18.0766L10.5 18.0764L10.5 18.0753L10.5 18.0704L10.5001 18.0503L10.5006 17.9709C10.5012 17.9016 10.5024 17.8009 10.5048 17.676C10.5096 17.426 10.5193 17.0806 10.5385 16.6987C10.5778 15.9203 10.655 15.0408 10.7972 14.4958L10.7973 14.4955C10.926 14.0009 11.3038 13.6185 11.7719 13.4901L11.7722 13.49C12.0115 13.4242 12.478 13.366 13.0861 13.3204C13.6799 13.2759 14.3677 13.246 15.0237 13.226C15.6789 13.206 16.2984 13.196 16.7543 13.191C16.9822 13.1885 17.1689 13.1873 17.2986 13.1867L17.4482 13.1861L17.4871 13.186L17.4969 13.186L17.4993 13.186L17.4999 13.186H17.5L17.5 12.686L17.5 13.186H17.5001L17.5007 13.186L17.5031 13.186L17.5129 13.186L17.5518 13.1861L17.7014 13.1867C17.8311 13.1873 18.0178 13.1885 18.2457 13.191C18.7016 13.196 19.3211 13.206 19.9763 13.226C20.6323 13.246 21.3201 13.2759 21.9138 13.3204C22.522 13.366 22.9884 13.4242 23.2277 13.49ZM16.3587 15.5433L15.5937 15.0652V15.9673V20.6548V21.5569L16.3587 21.0788L20.1087 18.7352L20.7871 18.3112L20.1087 17.8872L16.3587 15.5433Z" fill="#181D4E" stroke="#181D4E"/>
<rect x="1.5" y="1.68604" width="32" height="32" rx="16" stroke="#E5E7EB" stroke-width="2"/>
</svg>
